Coordinates
version=1
nRows=22
nColumns=24
inDegrees=yes

Units are S.I. units (second, meters, Newtons, ...)
Angles are in degrees.

endheader
time	pelvis_tilt	pelvis_list	pelvis_rotation	pelvis_tx	pelvis_ty	pelvis_tz	hip_flexion_r	hip_adduction_r	hip_rotation_r	knee_angle_r	ankle_angle_r	subtalar_angle_r	mtp_angle_r	hip_flexion_l	hip_adduction_l	hip_rotation_l	knee_angle_l	ankle_angle_l	subtalar_angle_l	mtp_angle_l	lumbar_extension	lumbar_bending	lumbar_rotation
      1.75500000	     16.97661450	     -2.49119216	     -0.77436083	     -0.10929751	      0.96206517	      0.00307972	      1.05611816	     -2.15211263	     -8.59982594	    -17.39529312	     18.61265144	      4.68110859	     28.35730831	    -28.63326026	     -0.26593825	     -6.70187373	      3.68381223	     12.43246833	     16.74052669	      6.81977354	    -29.06157555	     -0.34250373	     -0.37612580
      1.76000000	     17.09427251	     -2.41313795	     -0.62501918	     -0.10499535	      0.96162067	      0.00324003	      0.68408154	     -2.04875519	     -8.46823709	    -15.22759697	     18.32190835	      4.83921879	     28.36438216	    -29.01923420	     -0.26966985	     -6.66711800	      3.64690085	     12.63518214	     16.90334613	      6.85334869	    -29.19076599	     -0.36980497	     -0.54265905
      1.76500000	     17.22037732	     -2.31910916	     -0.50855041	     -0.10066953	      0.96114355	      0.00347580	      0.29016393	     -1.95977193	     -8.26686548	    -13.06969536	     17.98125646	      4.97504405	     28.43526485	    -29.40962011	     -0.24576144	     -6.70303564	      3.58906993	     12.85758773	     17.13501602	      6.88595459	    -29.32500343	     -0.42698801	     -0.67126973
      1.77000000	     17.32844375	     -2.21449367	     -0.45217027	     -0.09634430	      0.96059118	      0.00385131	     -0.08794227	     -1.87633241	     -7.92434773	    -10.93299653	     17.52463199	      4.98348278	     28.98440804	    -29.76993986	     -0.19042045	     -6.85852578	      3.49564780	     13.14614057	     17.53134105	      6.89056373	    -29.43864053	     -0.52307200	     -0.72198916
      1.77500000	     17.44260752	     -2.05460479	     -0.32298649	     -0.09193894	      0.96002624	      0.00404668	     -0.48110258	     -1.87767627	     -7.77327989	     -8.88121911	     17.16563856	      5.24218826	     29.13665972	    -30.15782509	     -0.11179864	     -6.79644498	      3.45958203	     13.29881114	     17.63170922	      6.89450300	    -29.55055529	     -0.62959084	     -0.90285633
      1.78000000	     17.54813531	     -1.88961882	     -0.24178909	     -0.08751259	      0.95940670	      0.00434159	     -0.85687050	     -1.88581535	     -7.53557792	     -6.90342883	     16.75851350	      5.44810796	     29.33682537	    -30.53468239	     -0.01020331	     -6.82280672	      3.40544942	     13.49846727	     17.85082037	      6.90883863	    -29.64900264	     -0.76113186	     -1.01636252
      1.78500000	     17.64518020	     -1.70363564	     -0.17835892	     -0.08305713	      0.95874062	      0.00465888	     -1.20974442	     -1.92441121	     -7.29285896	     -5.02673692	     16.33127391	      5.65147480	     29.60109044	    -30.90491716	      0.11824014	     -6.85853449	      3.35085545	     13.69259130	     18.08258371	      6.92147053	    -29.73492326	     -0.91702643	     -1.11869122
      1.79000000	     17.72934476	     -1.50260633	     -0.12721636	     -0.07858427	      0.95803821	      0.00499133	     -1.52374741	     -1.98870366	     -7.07073782	     -3.28030024	     15.92100371	      5.88114443	     29.90542160	    -31.25915413	      0.26445033	     -6.88828860	      3.28888485	     13.87525103	     18.29969134	      6.93273064	    -29.80496387	     -1.08851209	     -1.20982785
      1.79500000	     17.77617061	     -1.28178200	     -0.11412499	     -0.07412180	      0.95726455	      0.00537922	     -1.77663454	     -2.07927763	     -6.78047927	     -1.61905419	     15.24124705	      5.80339898	     33.09331452	    -31.56570111	      0.44486630	     -6.93653156	      3.20541954	     14.06957805	     18.52233472	      6.79608618	    -29.83430416	     -1.29183310	     -1.26087569
      1.80000000	     17.85035035	     -1.05748608	     -0.06764086	     -0.06959479	      0.95652891	      0.00568686	     -2.01954313	     -2.18643565	     -6.67437833	     -0.17969591	     14.91125750	      6.16428405	     33.11065991	    -31.91256963	      0.61307985	     -6.92896105	      3.14277579	     14.23262315	     18.69214663	      6.82273288	    -29.88836903	     -1.47490606	     -1.35787646
      1.80500000	     17.92587647	     -0.83763353	     -0.04064221	     -0.06504080	      0.95578594	      0.00603116	     -2.23622128	     -2.29112751	     -6.56980481	      1.11400950	     14.59332258	      6.49431882	     33.16270297	    -32.26348564	      0.78474568	     -6.95033303	      3.07746352	     14.38626586	     18.87962577	      6.85686571	    -29.93955066	     -1.65811747	     -1.42631672
      1.81000000	     18.00345049	     -0.62147367	     -0.01964832	     -0.06047016	      0.95505127	      0.00638991	     -2.42353048	     -2.39394062	     -6.49834070	      2.24767146	     14.30432864	      6.81631090	     33.24630814	    -32.61435001	      0.95255706	     -6.97518837	      3.00262017	     14.53255825	     19.07094242	      6.89865608	    -29.99186553	     -1.83575982	     -1.48349240
      1.81500000	     18.02038259	     -0.37924433	     -0.02979110	     -0.05594720	      0.95425166	      0.00677412	     -2.48299748	     -2.53231305	     -6.42525138	      3.17253049	     14.05091984	      7.14456731	     33.28707863	    -32.88555994	      1.15926628	     -6.97083633	      2.90319552	     14.68938874	     19.18352415	      6.93113870	    -29.98323370	     -2.04831518	     -1.52938943
      1.82000000	     18.16108337	     -0.21094080	      0.02216587	     -0.05126698	      0.95363139	      0.00712909	     -2.70940704	     -2.57673859	     -6.47265538	      4.02275264	     13.84484546	      7.45987641	     33.41529513	    -33.30947305	      1.25820156	     -7.02191949	      2.82235929	     14.79742478	     19.44418753	      6.99750161	    -30.09307683	     -2.15571783	     -1.57366421
      1.82500000	     18.24653120	     -0.02917194	      0.04306295	     -0.04660633	      0.95295510	      0.00751475	     -2.81757655	     -2.64204080	     -6.51477511	      4.66447880	     13.68694128	      7.78969798	     33.56740386	    -33.66320176	      1.38340955	     -7.06610663	      2.72005772	     14.92547400	     19.66336278	      7.07941627	    -30.14341503	     -2.28516145	     -1.60967466
      1.83000000	     18.33871490	      0.14361775	      0.06594218	     -0.04193826	      0.95230664	      0.00790070	     -2.90478021	     -2.69786271	     -6.58180891	      5.14444515	     13.56868946	      8.10976759	     33.71805529	    -34.02044650	      1.49644521	     -7.10205535	      2.60861119	     15.04463395	     19.86274332	      7.17335378	    -30.20204971	     -2.39923612	     -1.64018106
      1.83500000	     18.44002199	      0.29199017	      0.09827043	     -0.03721850	      0.95168919	      0.00830226	     -2.98081133	     -2.72553541	     -6.68056003	      5.46932323	     13.50064657	      8.45673558	     33.89958807	    -34.39123933	      1.57563315	     -7.14603958	      2.49843294	     15.16303593	     20.09447103	      7.30610284	    -30.26270859	     -2.48299823	     -1.67702700
      1.84000000	     18.54305543	      0.43970731	      0.13188708	     -0.03251595	      0.95109862	      0.00868678	     -3.03405289	     -2.75632271	     -6.77464019	      5.64477608	     13.46795936	      8.76293048	     34.05678307	    -34.74968708	      1.65107636	     -7.17519967	      2.36029192	     15.26460373	     20.30033404	      7.45070110	    -30.33040437	     -2.55538345	     -1.70083539
      1.84500000	     18.65404608	      0.56524042	      0.17217052	     -0.02776939	      0.95054340	      0.00909855	     -3.08064422	     -2.76215348	     -6.87310372	      5.68085125	     13.46583540	      9.06877432	     34.19972811	    -35.11613388	      1.69554325	     -7.21108550	      2.21598723	     15.35902226	     20.52150604	      7.61575284	    -30.40113665	     -2.60429078	     -1.73391658
      1.85000000	     18.76010641	      0.68122181	      0.21765156	     -0.02297721	      0.95000705	      0.00950866	     -3.11215830	     -2.75993575	     -6.97830947	      5.59595369	     13.49942545	      9.38916910	     34.33738171	    -35.47050117	      1.72438274	     -7.24539732	      2.05265514	     15.45352039	     20.75190730	      7.81182754	    -30.46139170	     -2.63489077	     -1.76040285
      1.85500000	     18.87538758	      0.77983636	      0.27557601	     -0.01816148	      0.94950174	      0.00990534	     -3.14195682	     -2.74414295	     -7.06958653	      5.39054992	     13.54235227	      9.69835781	     34.46141222	    -35.83364874	      1.72552326	     -7.27533202	      1.88407650	     15.53167581	     20.98058914	      8.03662812	    -30.52992221	     -2.63607497	     -1.78265935
      1.86000000	     18.99767083	      0.87029893	      0.33241765	     -0.01332409	      0.94902405	      0.01031817	     -3.17255252	     -2.72257014	     -7.13086060	      5.08304663	     13.59257603	      9.98304653	     34.56656950	    -36.19660908	      1.71468289	     -7.30077574	      1.69768087	     15.60916810	     21.21505668	      8.27332011	    -30.60353417	     -2.62655047	     -1.81093710
